<svg width="32" height="32" viewBox="0 0 32 32" fill="none" xmlns="http://www.w3.org/2000/svg">
<path d="M16 6.85712C14.8698 6.85712 13.765 7.19225 12.8253 7.82015C11.8856 8.44804 11.1532 9.34049 10.7207 10.3846C10.2882 11.4288 10.175 12.5777 10.3955 13.6862C10.616 14.7947 11.1602 15.8129 11.9594 16.612C12.7585 17.4112 13.7767 17.9554 14.8852 18.1759C15.9937 18.3964 17.1426 18.2832 18.1868 17.8507C19.2309 17.4182 20.1234 16.6858 20.7512 15.7461C21.3791 14.8064 21.7143 13.7016 21.7143 12.5714C21.7143 11.0559 21.1122 9.60243 20.0406 8.53079C18.969 7.45916 17.5155 6.85712 16 6.85712ZM16 16C15.3219 16 14.659 15.7989 14.0952 15.4222C13.5314 15.0454 13.0919 14.5099 12.8324 13.8835C12.5729 13.257 12.505 12.5676 12.6373 11.9025C12.7696 11.2374 13.0961 10.6265 13.5756 10.147C14.0551 9.66754 14.666 9.341 15.3311 9.20871C15.9962 9.07642 16.6856 9.14431 17.3121 9.40381C17.9385 9.66331 18.474 10.1028 18.8507 10.6666C19.2275 11.2304 19.4286 11.8933 19.4286 12.5714C19.4277 13.4804 19.0661 14.352 18.4234 14.9948C17.7806 15.6375 16.909 15.9991 16 16Z" fill="black"/>
<path d="M16 0C12.8355 0 9.74207 0.938384 7.11088 2.69649C4.4797 4.45459 2.42894 6.95345 1.21793 9.87706C0.00693253 12.8007 -0.309921 16.0177 0.307443 19.1214C0.924806 22.2251 2.44866 25.0761 4.6863 27.3137C6.92394 29.5513 9.77487 31.0752 12.8786 31.6926C15.9823 32.3099 19.1993 31.9931 22.1229 30.7821C25.0466 29.5711 27.5454 27.5203 29.3035 24.8891C31.0616 22.2579 32 19.1645 32 16C31.9952 11.758 30.3079 7.69117 27.3084 4.69164C24.3088 1.6921 20.242 0.00483968 16 0V0ZM9.14286 27.8594V26.2857C9.14377 25.3767 9.50529 24.5051 10.1481 23.8623C10.7909 23.2196 11.6624 22.858 12.5714 22.8571H19.4286C20.3376 22.858 21.2092 23.2196 21.8519 23.8623C22.4947 24.5051 22.8562 25.3767 22.8571 26.2857V27.8594C20.7762 29.0745 18.4097 29.7148 16 29.7148C13.5903 29.7148 11.2238 29.0745 9.14286 27.8594V27.8594ZM25.1337 26.2011C25.1109 24.7021 24.5002 23.272 23.433 22.219C22.3659 21.1659 20.9278 20.5742 19.4286 20.5714H12.5714C11.0722 20.5742 9.63411 21.1659 8.56696 22.219C7.49982 23.272 6.88907 24.7021 6.86629 26.2011C4.79379 24.3506 3.33227 21.9141 2.67525 19.2145C2.01822 16.5148 2.19669 13.6792 3.18702 11.0833C4.17735 8.48728 5.93283 6.25333 8.221 4.67722C10.5092 3.1011 13.2221 2.25717 16.0006 2.25717C18.779 2.25717 21.492 3.1011 23.7801 4.67722C26.0683 6.25333 27.8238 8.48728 28.8141 11.0833C29.8045 13.6792 29.9829 16.5148 29.3259 19.2145C28.6689 21.9141 27.2074 24.3506 25.1349 26.2011H25.1337Z" fill="black"/>
</svg>
