<svg width="633" height="633" viewBox="0 0 633 633" fill="none" xmlns="http://www.w3.org/2000/svg">
<path fill-rule="evenodd" clip-rule="evenodd" d="M298.694 13.1171C361.488 23.9496 413.179 60.3206 466.518 95.813C523.136 133.487 592.679 161.667 618.012 225.595C643.917 290.967 635.315 370.842 599.371 431.072C566.19 486.672 495.593 498.904 438.078 527.103C392.434 549.482 347.591 565.046 298.694 578.491C228.847 597.697 155.374 656.896 91.4119 622.427C28.6606 588.611 30.3844 496.132 14.8064 425.507C0.734656 361.711 -5.41941 298.735 5.81338 234.356C18.6971 160.515 24.7585 74.436 83.8491 29.7995C143.015 -14.8936 226.101 0.594259 298.694 13.1171Z" fill="#EEC39E"/>
</svg>
