<svg width="36" height="36" viewBox="0 0 36 36" fill="none" xmlns="http://www.w3.org/2000/svg">
<path d="M7.10913 9.11108H30.5941C31.0699 9.1111 31.5405 9.21521 31.9755 9.41669C32.4104 9.61818 32.8001 9.91257 33.1194 10.2809C33.4387 10.6492 33.6805 11.0833 33.8293 11.5551C33.9781 12.027 34.0305 12.5261 33.9831 13.0204L32.9613 23.6871C32.8772 24.5644 32.4839 25.3779 31.8577 25.9695C31.2314 26.5612 30.4169 26.8888 29.5722 26.8889H13.3082C12.5205 26.8892 11.757 26.6045 11.1478 26.0833C10.5386 25.5621 10.1212 24.8365 9.96683 24.0302L7.10913 9.11108Z" stroke="black" stroke-width="3.33333" stroke-linejoin="round"/>
<path d="M7.10912 9.11111L5.72966 3.34578C5.6374 2.96134 5.42473 2.6201 5.12543 2.37628C4.82613 2.13245 4.45737 2.00001 4.07771 2H2" stroke="black" stroke-width="3.33333" stroke-linecap="round" stroke-linejoin="round"/>
<path d="M12.2183 34H15.6243" stroke="black" stroke-width="3.33333" stroke-linecap="round" stroke-linejoin="round"/>
<path d="M25.8425 34H29.2485" stroke="black" stroke-width="3.33333" stroke-linecap="round" stroke-linejoin="round"/>
</svg>
